<svg version="1.0" xmlns="http://www.w3.org/2000/svg"  width="900.000000pt" height="1260.000000pt" viewBox="0 0 900.000000 1260.000000"  preserveAspectRatio="xMidYMid meet">  <g transform="translate(0.000000,1260.000000) scale(0.100000,-0.100000)" fill="#eea9c7" stroke="none"> <path d="M4429 12445 c-4 -3 -108 -8 -230 -11 -146 -4 -244 -10 -280 -20 -31 -8 -75 -14 -97 -14 -22 0 -59 -7 -82 -15 -23 -8 -63 -15 -89 -15 -25 0 -64 -7 -86 -15 -22 -8 -61 -14 -86 -15 -29 0 -51 -6 -59 -15 -7 -9 -29 -15 -51 -15 -26 0 -42 -6 -50 -17 -8 -14 -21 -17 -58 -15 -34 3 -51 -1 -60 -12 -8 -9 -29 -16 -51 -16 -24 0 -40 -5 -44 -15 -4 -10 -19 -15 -49 -15 -27 0 -49 -6 -57 -15 -7 -8 -23 -15 -37 -15 -13 0 -26 -7 -29 -15 -4 -8 -18 -15 -33 -15 -31 0 -56 -14 -48 -27 3 -5 -9 -7 -27 -5 -21 2 -37 -2 -45 -12 -8 -9 -21 -16 -30 -16 -9 0 -25 -7 -35 -15 -11 -8 -30 -15 -42 -15 -12 0 -27 -7 -34 -15 -7 -8 -20 -15 -30 -15 -10 0 -23 -7 -30 -15 -7 -8 -20 -15 -30 -15 -10 0 -23 -7 -30 -15 -7 -8 -20 -15 -30 -15 -10 0 -23 -7 -30 -15 -7 -8 -18 -15 -25 -15 -7 0 -18 -7 -25 -15 -7 -8 -23 -15 -37 -15 -13 0 -26 -7 -29 -15 -4 -8 -13 -15 -20 -15 -8 0 -17 -7 -20 -15 -4 -8 -16 -15 -29 -15 -13 0 -25 -7 -29 -15 -3 -8 -15 -15 -26 -15 -11 0 -23 -7 -26 -15 -4 -8 -12 -15 -19 -15 -7 0 -18 -7 -25 -15 -7 -8 -18 -15 -26 -15 -7 0 -28 -13 -46 -30 -18 -16 -38 -30 -46 -30 -7 0 -15 -7 -18 -15 -4 -8 -11 -15 -16 -15 -6 0 -27 -13 -48 -30 -21 -16 -41 -30 -44 -30 -3 0 -21 -15 -41 -32 -55 -52 -63 -58 -80 -58 -8 0 -15 -5 -15 -11 0 -12 -40 -48 -53 -49 -5 0 -20 -13 -34 -30 -13 -16 -29 -30 -34 -30 -5 0 -29 -20 -53 -45 -25 -25 -46 -45 -49 -45 -8 0 -167 -162 -167 -171 0 -5 -4 -9 -8 -9 -12 0 -112 -98 -112 -110 0 -5 -5 -10 -10 -10 -6 0 -14 -8 -17 -17 -7 -18 -32 -49 -90 -110 -18 -18 -33 -37 -33 -41 0 -5 -13 -21 -28 -38 -31 -32 -107 -132 -137 -179 -10 -16 -24 -34 -30 -40 -7 -5 -21 -26 -31 -45 -11 -19 -25 -39 -32 -43 -6 -4 -12 -14 -12 -21 0 -8 -7 -19 -15 -26 -8 -7 -15 -20 -15 -30 0 -9 -13 -30 -30 -46 -16 -16 -30 -36 -30 -45 0 -8 -5 -20 -11 -26 -13 -13 -33 -47 -48 -80 -6 -13 -15 -23 -21 -23 -5 0 -10 -11 -10 -25 0 -14 -7 -28 -15 -31 -8 -4 -15 -14 -15 -24 0 -10 -7 -20 -15 -24 -8 -3 -15 -16 -15 -29 0 -14 -7 -30 -15 -37 -8 -7 -15 -20 -15 -30 0 -10 -7 -23 -15 -30 -8 -7 -15 -20 -15 -30 0 -10 -7 -23 -15 -30 -8 -7 -15 -25 -15 -40 0 -16 -7 -30 -15 -34 -8 -3 -15 -14 -15 -24 0 -11 -7 -25 -15 -32 -8 -7 -15 -25 -15 -40 0 -15 -7 -33 -15 -40 -8 -7 -15 -22 -15 -34 0 -12 -6 -30 -14 -41 -7 -11 -16 -32 -20 -47 -3 -16 -11 -28 -16 -28 -6 0 -10 -20 -10 -44 0 -30 -5 -46 -15 -50 -8 -3 -15 -16 -15 -30 0 -13 -7 -26 -15 -30 -11 -4 -15 -20 -15 -54 0 -32 -5 -54 -15 -62 -8 -7 -15 -27 -15 -45 0 -18 -7 -38 -15 -45 -8 -7 -15 -27 -15 -45 0 -18 -7 -49 -15 -68 -8 -20 -15 -56 -15 -79 0 -24 -7 -52 -15 -62 -8 -11 -15 -38 -15 -61 0 -23 -7 -50 -15 -61 -9 -12 -14 -42 -15 -81 0 -34 -5 -74 -11 -90 -5 -15 -14 -86 -20 -158 -5 -71 -13 -148 -19 -170 -13 -53 -13 -626 0 -660 5 -14 14 -81 19 -148 6 -67 15 -138 21 -157 5 -19 10 -64 10 -100 1 -41 6 -72 15 -84 8 -11 15 -40 15 -65 0 -25 7 -55 15 -65 9 -11 15 -42 15 -70 1 -28 7 -62 15 -76 8 -14 14 -37 15 -51 0 -14 7 -34 15 -45 8 -10 15 -33 15 -50 0 -16 7 -39 15 -50 8 -10 15 -38 15 -62 0 -28 5 -45 15 -48 9 -4 15 -19 15 -35 0 -17 6 -32 15 -35 9 -4 15 -19 15 -39 0 -18 8 -48 17 -67 9 -18 22 -45 30 -60 7 -14 13 -35 13 -46 0 -11 7 -25 15 -32 8 -7 15 -26 15 -42 0 -16 6 -31 15 -34 8 -4 15 -14 15 -24 0 -10 7 -23 15 -30 8 -7 15 -25 15 -41 0 -16 4 -29 10 -29 5 0 12 -11 16 -25 3 -13 12 -29 20 -36 8 -6 14 -19 14 -29 0 -10 7 -23 15 -30 8 -7 15 -23 15 -37 0 -13 7 -26 15 -29 8 -4 15 -14 15 -24 0 -10 7 -23 15 -30 8 -7 15 -20 15 -30 0 -10 7 -20 15 -24 8 -3 15 -14 15 -25 0 -11 5 -23 11 -26 5 -4 14 -17 20 -28 12 -28 27 -53 61 -98 16 -20 28 -43 28 -51 0 -7 13 -28 30 -46 16 -18 30 -37 30 -41 0 -5 7 -14 15 -21 8 -7 15 -21 15 -31 0 -11 7 -19 15 -19 8 0 15 -6 15 -14 0 -8 7 -16 15 -20 8 -3 15 -14 15 -25 0 -11 6 -24 13 -28 7 -4 37 -41 67 -80 55 -74 65 -83 73 -60 2 7 8 8 13 3 5 -5 4 -11 -3 -13 -20 -7 -15 -23 19 -62 18 -21 49 -57 68 -81 19 -25 85 -95 145 -158 149 -154 143 -148 231 -227 102 -92 244 -233 244 -244 0 -4 13 -21 30 -37 16 -16 30 -34 30 -41 0 -6 13 -27 30 -45 16 -18 30 -36 30 -41 0 -5 14 -26 30 -47 16 -21 30 -45 30 -54 0 -9 5 -16 10 -16 6 0 15 -10 20 -22 6 -13 14 -30 19 -38 5 -8 12 -22 15 -30 4 -8 15 -28 26 -45 11 -16 22 -37 26 -45 3 -8 12 -27 20 -42 8 -14 14 -33 14 -41 0 -8 7 -20 15 -27 8 -7 15 -23 15 -35 0 -12 7 -28 15 -35 8 -7 15 -27 15 -45 0 -18 7 -38 15 -45 8 -7 15 -25 15 -40 0 -15 7 -33 15 -40 10 -8 15 -31 15 -70 0 -39 5 -62 15 -70 9 -8 15 -30 15 -60 0 -26 7 -67 15 -90 19 -53 19 -157 0 -190 -8 -14 -15 -43 -15 -65 0 -22 -7 -49 -15 -59 -21 -28 -21 -264 0 -292 8 -10 15 -33 15 -50 0 -17 7 -37 15 -44 8 -7 15 -21 15 -32 0 -10 7 -21 15 -24 8 -4 15 -13 15 -21 0 -17 121 -143 137 -143 6 0 16 -7 23 -15 7 -8 23 -15 37 -15 13 0 26 -7 29 -15 4 -8 16 -15 28 -15 12 0 31 -7 42 -15 11 -8 41 -15 70 -15 50 0 53 -1 126 -75 41 -41 84 -95 97 -120 12 -25 27 -45 32 -45 5 0 9 -9 9 -19 0 -10 7 -21 15 -25 8 -3 15 -14 15 -24 0 -11 7 -25 15 -32 8 -7 15 -18 15 -25 0 -7 7 -18 15 -25 8 -7 15 -19 15 -27 0 -8 24 -46 52 -83 l53 -69 1276 -1 c1123 0 1278 2 1289 15 7 8 17 15 22 15 11 0 47 41 48 54 0 4 13 25 30 46 17 21 30 47 30 58 0 11 7 25 15 32 8 7 15 18 15 25 0 7 7 15 15 19 8 3 15 12 15 20 0 18 58 107 77 119 7 4 13 14 13 20 0 7 12 24 28 37 15 14 42 44 60 68 l34 42 68 0 c48 0 71 4 80 15 7 8 20 15 30 15 10 0 23 7 30 15 7 8 19 15 26 15 21 0 71 33 94 63 12 15 28 27 36 27 8 0 18 10 23 22 5 13 21 36 35 51 14 15 26 36 26 46 0 11 7 21 15 25 9 3 15 18 15 34 0 16 7 35 15 42 12 10 15 43 15 175 0 132 -3 165 -15 175 -8 7 -15 27 -15 44 0 44 -14 64 -29 40 -10 -18 -10 -18 -11 4 0 12 5 22 10 22 6 0 10 23 9 52 -1 29 4 76 9 103 6 28 11 76 11 108 1 42 5 59 16 63 10 4 15 20 15 48 0 23 7 51 15 62 8 10 15 38 15 60 0 24 6 47 15 54 8 7 15 23 15 35 0 12 7 28 15 35 8 7 15 27 15 45 0 18 7 38 15 45 8 7 15 21 15 31 0 10 4 20 9 23 11 7 51 88 51 104 0 7 4 12 9 12 5 0 14 13 20 30 5 16 15 30 20 30 6 0 11 11 11 24 0 13 7 29 15 36 8 7 15 19 15 27 0 7 7 16 15 19 8 4 15 13 15 20 0 8 7 17 15 20 8 4 15 15 15 25 0 11 13 33 30 49 17 16 30 34 30 39 0 11 38 56 103 124 26 27 47 52 47 54 0 3 16 19 36 36 20 18 92 86 161 152 68 66 133 124 144 129 10 5 19 14 19 20 0 6 41 53 90 105 50 52 90 96 90 98 0 3 28 38 63 78 34 41 76 92 92 115 17 23 42 54 58 71 15 16 27 32 27 35 0 4 12 23 28 43 34 45 49 70 62 99 5 12 14 22 20 22 5 0 10 8 10 18 0 10 13 32 30 48 16 16 30 36 30 44 0 9 14 30 30 48 17 18 30 41 30 51 0 10 7 24 15 31 8 7 15 21 15 31 0 11 5 19 10 19 6 0 15 11 20 25 5 14 14 25 20 25 5 0 10 13 10 29 0 16 7 34 15 41 8 7 15 18 15 25 0 7 7 15 15 19 8 3 15 16 15 29 0 14 7 30 15 37 8 7 15 23 15 35 0 13 7 25 15 29 8 3 15 14 15 24 0 11 7 25 15 32 8 7 15 22 15 34 0 12 7 31 15 42 8 10 15 26 15 35 0 9 7 22 15 29 8 7 15 24 15 39 0 14 7 35 15 45 8 11 15 30 15 42 0 12 7 27 15 34 8 7 15 20 15 29 0 10 7 26 15 37 8 10 15 33 15 50 0 16 7 39 15 50 8 10 15 34 15 52 0 20 6 35 15 38 10 4 15 21 15 54 0 30 6 52 15 60 8 7 15 29 15 50 0 21 7 43 15 50 8 7 15 29 15 49 1 20 7 54 15 76 8 22 15 58 15 79 0 22 6 62 14 90 24 83 37 173 46 306 5 69 13 152 19 185 13 80 13 572 0 660 -6 39 -14 120 -19 180 -8 112 -23 208 -41 280 -6 22 -14 67 -18 100 -4 33 -12 70 -19 82 -7 12 -12 37 -12 56 0 19 -7 40 -15 47 -9 7 -15 29 -15 55 0 26 -6 48 -15 55 -10 8 -15 30 -15 62 0 34 -4 50 -15 54 -9 4 -15 19 -15 39 0 18 -7 38 -15 45 -8 7 -15 29 -15 50 0 21 -7 43 -15 50 -8 7 -15 23 -15 37 0 13 -7 26 -15 29 -8 4 -15 18 -15 33 0 14 -7 35 -15 45 -8 11 -15 32 -15 47 0 14 -7 32 -15 39 -8 7 -15 20 -15 30 0 10 -7 23 -15 30 -8 7 -15 26 -15 42 0 16 -6 31 -15 34 -8 4 -15 17 -15 30 0 14 -7 27 -15 30 -8 4 -15 17 -15 29 0 13 -7 30 -15 39 -8 8 -15 24 -15 36 0 11 -7 23 -15 26 -8 4 -15 14 -15 24 0 10 -7 23 -15 30 -8 7 -15 20 -15 30 0 10 -7 20 -15 24 -8 3 -15 15 -15 26 0 11 -7 23 -15 26 -8 4 -15 14 -15 24 0 10 -7 23 -15 30 -8 7 -15 21 -15 32 0 10 -7 21 -15 24 -8 4 -15 13 -15 20 0 8 -7 17 -15 20 -8 4 -15 16 -15 28 0 11 -14 34 -30 50 -17 16 -30 37 -30 45 0 9 -13 31 -30 49 -16 18 -30 38 -30 43 0 11 -4 17 -54 75 -20 23 -36 46 -36 51 0 5 -13 22 -30 38 -16 16 -30 35 -30 42 0 8 -7 16 -15 19 -8 4 -15 10 -15 14 0 4 -20 29 -45 56 -25 26 -45 52 -45 59 0 6 -13 21 -30 33 -16 13 -30 27 -30 33 0 25 -464 469 -490 469 -6 0 -13 7 -16 15 -4 8 -12 15 -20 15 -8 0 -14 4 -14 9 0 5 -17 20 -37 32 -21 13 -49 36 -63 51 -13 15 -32 28 -41 28 -9 0 -19 7 -23 15 -3 8 -10 15 -15 15 -5 0 -25 14 -43 30 -18 17 -38 30 -46 30 -7 0 -26 14 -42 30 -16 17 -38 30 -50 30 -11 0 -20 5 -20 10 0 6 -10 15 -22 20 -13 6 -36 19 -53 30 -16 11 -37 23 -45 27 -8 3 -31 19 -51 35 -20 15 -49 28 -63 28 -14 0 -26 5 -26 10 0 6 -11 15 -25 20 -14 5 -25 14 -25 20 0 5 -13 10 -29 10 -16 0 -31 6 -35 15 -3 8 -16 15 -30 15 -13 0 -26 7 -30 15 -3 8 -14 15 -24 15 -11 0 -25 7 -32 15 -7 8 -22 15 -34 15 -12 0 -31 7 -42 15 -10 8 -26 15 -35 15 -9 0 -22 7 -29 15 -7 8 -25 15 -40 15 -15 0 -33 7 -40 15 -7 8 -25 15 -40 15 -15 0 -33 7 -40 15 -7 8 -23 15 -35 15 -12 0 -28 7 -35 15 -7 9 -30 15 -54 15 -22 0 -50 7 -60 15 -11 8 -30 15 -42 15 -13 0 -27 7 -32 16 -7 13 -22 16 -75 12 -38 -2 -63 0 -60 5 8 14 -18 27 -55 27 -18 0 -40 7 -48 15 -9 9 -34 15 -62 15 -26 1 -58 7 -72 15 -14 8 -52 14 -86 15 -34 0 -81 7 -104 15 -23 8 -64 15 -90 15 -26 0 -63 6 -81 14 -38 16 -436 28 -445 14 -3 -4 -13 -4 -23 1 -23 13 -114 25 -122 16z m583 -671 c15 -8 46 -14 70 -14 24 -1 54 -7 68 -15 14 -8 50 -15 80 -15 32 0 63 -7 74 -15 12 -9 42 -15 72 -15 37 0 54 -4 58 -15 3 -10 19 -15 44 -15 23 0 45 -6 52 -15 7 -9 30 -15 54 -15 22 0 50 -7 60 -15 11 -8 30 -15 43 -15 13 0 26 -7 29 -15 4 -9 19 -15 36 -15 16 0 36 -7 44 -15 9 -8 30 -15 49 -15 20 0 35 -6 39 -15 3 -8 12 -15 19 -15 8 0 20 -7 27 -15 7 -8 27 -15 45 -15 18 0 38 -7 45 -15 7 -8 20 -15 30 -15 10 0 23 -7 30 -15 7 -8 23 -15 35 -15 12 0 28 -7 35 -15 7 -8 20 -15 30 -15 10 0 23 -7 30 -15 7 -8 20 -15 30 -15 10 0 20 -7 24 -15 3 -8 15 -15 27 -15 12 0 38 -13 59 -30 21 -16 45 -30 53 -30 8 0 17 -7 21 -15 3 -8 15 -15 26 -15 11 0 20 -5 20 -10 0 -6 10 -15 23 -21 48 -22 77 -41 77 -50 0 -5 5 -9 11 -9 6 0 28 -13 49 -30 21 -16 42 -30 47 -30 5 0 23 -13 41 -30 18 -16 37 -30 41 -30 4 0 18 -13 31 -30 14 -16 31 -29 39 -30 7 0 40 -26 74 -57 33 -32 68 -66 79 -75 10 -10 20 -18 23 -18 6 0 192 -189 255 -260 30 -34 70 -76 88 -93 17 -16 32 -37 32 -46 1 -9 14 -27 30 -41 17 -13 30 -28 30 -33 0 -5 20 -32 45 -60 25 -29 45 -57 45 -64 0 -7 5 -13 10 -13 6 0 15 -10 20 -22 6 -13 19 -36 30 -53 11 -16 23 -37 27 -45 3 -8 12 -19 20 -23 7 -4 13 -17 13 -27 0 -10 6 -23 13 -27 14 -9 32 -37 47 -70 5 -13 14 -23 20 -23 5 0 10 -10 10 -23 0 -13 5 -28 11 -34 14 -14 26 -36 58 -100 13 -26 27 -55 32 -63 5 -8 13 -25 18 -37 6 -11 15 -24 20 -28 6 -3 11 -19 11 -34 0 -16 7 -34 15 -41 8 -7 15 -20 15 -30 0 -10 7 -23 15 -30 8 -7 15 -21 15 -31 0 -9 7 -24 15 -33 8 -8 15 -29 15 -46 0 -18 6 -33 15 -36 8 -4 15 -18 15 -33 0 -14 7 -35 15 -45 8 -11 15 -34 15 -52 0 -17 7 -37 15 -44 8 -7 15 -25 15 -40 0 -15 7 -33 15 -40 9 -8 15 -30 15 -60 0 -30 6 -52 15 -60 8 -7 15 -27 15 -45 0 -18 7 -46 15 -61 8 -16 15 -43 15 -60 0 -17 7 -51 15 -74 8 -23 15 -76 15 -117 0 -41 6 -84 12 -96 7 -12 16 -65 20 -117 3 -52 11 -115 17 -140 6 -25 10 -171 10 -330 1 -224 -2 -294 -14 -325 -8 -22 -14 -61 -15 -86 0 -25 -7 -68 -15 -95 -8 -27 -15 -79 -15 -115 0 -37 -7 -86 -15 -109 -8 -23 -15 -57 -15 -74 -1 -17 -7 -42 -15 -56 -8 -14 -14 -41 -15 -61 0 -20 -7 -42 -15 -49 -9 -7 -15 -29 -15 -55 0 -26 -6 -48 -15 -55 -8 -7 -15 -25 -15 -40 0 -15 -7 -33 -15 -40 -9 -7 -15 -29 -15 -52 0 -22 -7 -46 -15 -54 -8 -9 -15 -26 -15 -40 0 -14 -7 -27 -15 -30 -9 -4 -15 -19 -15 -39 0 -18 -7 -38 -15 -45 -8 -7 -15 -23 -15 -35 0 -12 -7 -28 -15 -35 -8 -7 -15 -20 -15 -30 0 -10 -7 -23 -15 -30 -8 -7 -15 -25 -15 -40 0 -15 -7 -33 -15 -40 -8 -7 -15 -18 -15 -25 0 -7 -7 -18 -15 -25 -8 -7 -15 -23 -15 -36 0 -12 -5 -26 -11 -29 -5 -4 -15 -17 -20 -28 -15 -34 -36 -68 -48 -80 -6 -6 -11 -21 -11 -34 0 -13 -5 -23 -10 -23 -6 0 -15 -10 -20 -22 -15 -34 -33 -62 -47 -71 -7 -4 -13 -17 -13 -28 0 -11 -7 -22 -15 -25 -8 -4 -15 -13 -15 -20 0 -8 -7 -17 -15 -20 -8 -4 -15 -15 -15 -25 0 -10 -5 -19 -10 -19 -6 0 -13 -8 -17 -17 -3 -10 -19 -34 -35 -54 -15 -20 -28 -39 -28 -42 0 -3 -13 -21 -30 -39 -16 -18 -30 -37 -30 -43 0 -6 -12 -22 -28 -35 -15 -14 -49 -52 -74 -85 -26 -33 -81 -95 -122 -139 -42 -43 -76 -80 -76 -82 0 -5 -39 -44 -44 -44 -2 0 -30 -25 -62 -56 -105 -100 -201 -184 -211 -184 -6 0 -20 -13 -33 -30 -13 -16 -28 -30 -35 -30 -6 0 -24 -14 -40 -30 -16 -17 -34 -30 -41 -30 -7 0 -14 -3 -16 -7 -4 -11 -65 -53 -77 -53 -5 0 -11 -7 -15 -15 -3 -10 -19 -15 -44 -15 -34 0 -44 6 -78 47 -60 71 -95 111 -146 166 -45 49 -46 51 -30 73 9 13 24 26 34 29 9 3 19 12 22 20 3 8 11 15 17 15 13 0 188 131 215 161 9 10 22 19 29 19 6 0 22 13 35 30 14 16 28 29 33 30 10 0 317 309 317 320 0 4 7 10 15 14 8 3 15 11 15 18 0 8 8 21 18 29 9 9 31 32 47 53 17 20 42 51 56 69 14 18 34 47 44 65 11 17 25 32 32 32 7 0 13 9 13 19 0 11 12 33 26 48 14 15 30 37 35 48 12 27 28 52 62 96 15 20 27 46 27 58 0 12 4 21 9 21 10 0 21 17 59 97 13 26 28 55 33 63 5 8 13 25 18 37 6 11 15 24 20 28 6 3 11 19 11 34 0 16 7 34 15 41 8 7 15 20 15 30 0 10 7 23 15 30 8 7 15 23 15 35 0 12 7 28 15 35 8 7 15 26 15 42 0 16 6 31 15 34 8 4 15 18 15 34 0 15 7 33 16 41 11 9 15 26 12 55 -2 34 1 44 14 48 12 3 18 14 18 34 0 16 7 35 15 42 9 8 15 30 15 59 1 25 7 57 15 71 8 14 14 40 15 58 0 18 6 45 14 60 7 15 16 54 20 86 4 33 11 64 15 70 5 6 12 58 15 116 3 58 10 130 15 160 12 71 12 547 0 625 -5 33 -13 105 -18 160 -4 55 -13 113 -19 128 -7 16 -12 50 -12 76 0 31 -5 53 -15 61 -8 7 -15 25 -15 40 0 15 -7 44 -15 63 -8 20 -15 52 -15 71 0 19 -7 41 -15 50 -8 8 -15 29 -15 46 0 22 -5 33 -18 37 -14 3 -17 12 -14 38 2 20 -2 43 -12 57 -9 12 -16 34 -16 49 0 15 -7 29 -15 33 -8 3 -15 18 -15 33 0 15 -7 37 -15 47 -8 11 -15 30 -15 43 0 13 -7 26 -15 29 -8 4 -15 16 -15 29 0 12 -7 28 -15 35 -8 7 -15 23 -15 35 0 12 -7 28 -15 35 -8 7 -15 18 -15 25 0 7 -7 18 -15 25 -8 7 -15 20 -15 30 0 10 -7 23 -15 30 -8 7 -15 21 -15 32 0 10 -7 21 -15 24 -8 4 -15 13 -15 20 0 8 -7 17 -15 20 -8 4 -15 17 -15 30 0 12 -11 35 -25 50 -26 28 -49 65 -61 97 -3 9 -10 17 -15 17 -5 0 -14 10 -19 23 -14 31 -31 55 -62 89 -16 16 -28 33 -28 38 0 5 -20 31 -45 57 -24 26 -45 56 -45 66 0 9 -7 17 -15 17 -8 0 -15 4 -15 8 0 26 -419 442 -446 442 -7 0 -32 20 -56 45 -24 24 -48 45 -55 45 -6 0 -27 14 -45 30 -18 17 -38 30 -45 30 -7 0 -13 5 -13 10 0 6 -11 15 -25 20 -14 5 -25 13 -25 18 0 5 -19 18 -42 31 -63 32 -82 45 -91 59 -4 6 -18 12 -31 12 -13 0 -29 7 -36 15 -7 8 -18 15 -25 15 -7 0 -15 7 -19 15 -3 8 -14 15 -24 15 -11 0 -25 7 -32 15 -7 8 -20 15 -30 15 -10 0 -23 7 -30 15 -7 8 -21 15 -32 15 -10 0 -21 7 -24 15 -4 9 -19 15 -39 15 -18 0 -38 7 -45 15 -7 8 -20 15 -30 15 -10 0 -23 7 -30 15 -7 8 -22 15 -34 15 -12 0 -31 7 -42 15 -10 8 -32 15 -47 15 -15 0 -30 7 -33 15 -4 9 -19 15 -35 15 -17 0 -32 6 -35 15 -4 11 -21 15 -56 15 -31 0 -55 6 -64 15 -9 8 -28 15 -43 15 -16 0 -34 7 -41 15 -8 9 -30 15 -59 15 -25 0 -59 7 -75 15 -15 8 -43 15 -62 15 -18 0 -51 6 -71 14 -21 8 -75 17 -121 20 -45 3 -91 10 -101 16 -13 6 -148 10 -368 10 -278 0 -356 -3 -388 -15 -22 -8 -71 -14 -110 -15 -41 0 -80 -7 -95 -15 -14 -8 -45 -15 -70 -15 -25 0 -54 -7 -64 -15 -12 -9 -42 -15 -72 -15 -34 0 -56 -5 -64 -15 -7 -8 -25 -15 -40 -15 -15 0 -33 -7 -40 -15 -7 -9 -29 -15 -55 -15 -26 0 -48 -6 -55 -15 -7 -8 -23 -15 -35 -15 -12 0 -28 -7 -35 -15 -7 -8 -25 -15 -40 -15 -15 0 -33 -7 -40 -15 -7 -8 -28 -15 -47 -15 -21 0 -36 -6 -39 -15 -4 -8 -14 -15 -24 -15 -10 0 -25 -7 -34 -15 -8 -8 -26 -15 -39 -15 -14 0 -30 -7 -37 -15 -7 -8 -18 -15 -25 -15 -7 0 -18 -7 -25 -15 -7 -8 -23 -15 -35 -15 -13 0 -25 -7 -29 -15 -3 -8 -16 -15 -30 -15 -13 0 -26 -7 -30 -15 -3 -8 -15 -15 -26 -15 -11 0 -23 -7 -26 -15 -4 -8 -14 -15 -24 -15 -10 0 -23 -7 -30 -15 -7 -8 -18 -15 -25 -15 -7 0 -15 -7 -19 -15 -3 -8 -13 -15 -22 -15 -9 0 -33 -13 -54 -30 -21 -16 -43 -30 -49 -30 -7 0 -14 -7 -17 -15 -4 -8 -14 -15 -23 -15 -9 -1 -27 -14 -41 -30 -13 -17 -28 -30 -33 -30 -14 0 -127 -90 -165 -132 -9 -10 -21 -18 -27 -18 -13 0 -331 -322 -375 -380 -19 -25 -41 -53 -49 -62 -31 -34 -41 -47 -41 -57 0 -5 -4 -11 -10 -13 -13 -4 -120 -147 -134 -178 -6 -14 -16 -29 -23 -33 -7 -4 -13 -14 -13 -22 0 -8 -6 -18 -14 -22 -7 -4 -23 -29 -35 -55 -12 -27 -26 -48 -31 -48 -6 0 -10 -8 -10 -19 0 -10 -7 -24 -15 -31 -8 -7 -15 -20 -15 -30 0 -10 -7 -23 -15 -30 -8 -7 -15 -18 -15 -25 0 -7 -7 -18 -15 -25 -8 -7 -15 -23 -15 -35 0 -12 -7 -28 -15 -35 -8 -7 -15 -18 -15 -25 0 -7 -7 -18 -15 -25 -8 -7 -15 -25 -15 -40 0 -15 -7 -33 -15 -40 -8 -7 -15 -23 -15 -35 0 -12 -7 -28 -15 -35 -8 -7 -15 -20 -15 -30 0 -10 -7 -23 -15 -30 -8 -7 -15 -28 -15 -47 0 -19 -7 -41 -15 -49 -8 -9 -15 -26 -15 -38 0 -13 -7 -29 -15 -36 -9 -8 -15 -30 -15 -60 0 -30 -6 -52 -15 -60 -8 -7 -15 -29 -15 -49 0 -21 -7 -46 -15 -57 -8 -10 -15 -35 -15 -54 0 -19 -7 -46 -15 -60 -8 -14 -14 -48 -15 -76 0 -28 -7 -73 -15 -100 -8 -27 -15 -66 -15 -88 0 -21 -7 -80 -15 -130 -13 -72 -15 -149 -12 -366 4 -256 11 -341 39 -480 6 -30 14 -84 17 -120 4 -36 12 -75 19 -87 7 -12 12 -39 12 -61 0 -23 6 -45 15 -52 9 -8 15 -30 15 -57 0 -30 5 -45 15 -49 11 -4 15 -21 15 -59 0 -34 5 -57 15 -65 8 -7 15 -22 15 -34 0 -12 7 -31 15 -42 8 -10 15 -33 15 -50 0 -17 7 -37 15 -44 8 -7 15 -23 15 -35 0 -13 7 -25 15 -29 9 -3 15 -18 15 -34 0 -16 7 -35 15 -42 8 -7 15 -25 15 -40 0 -16 7 -30 15 -34 8 -3 15 -12 15 -20 0 -13 16 -50 42 -96 4 -8 12 -25 17 -37 6 -11 15 -24 20 -28 6 -3 11 -15 11 -26 0 -11 7 -22 15 -25 8 -4 15 -17 15 -30 0 -14 7 -27 15 -30 8 -4 15 -14 15 -24 0 -11 5 -22 11 -25 5 -4 14 -17 20 -28 12 -29 32 -60 42 -68 10 -7 31 -42 46 -76 6 -13 15 -23 20 -23 5 0 12 -8 15 -17 11 -31 30 -59 63 -91 17 -18 37 -45 45 -62 7 -16 19 -30 25 -30 7 0 13 -6 13 -14 0 -8 7 -16 15 -20 8 -3 15 -12 15 -20 0 -8 13 -24 30 -36 16 -12 30 -27 30 -34 0 -6 13 -23 30 -36 16 -14 29 -29 30 -33 0 -4 45 -51 99 -105 129 -126 157 -152 168 -152 4 0 19 -13 33 -30 14 -16 29 -30 35 -30 15 -1 55 -36 55 -49 0 -6 5 -11 11 -11 7 0 32 -17 56 -37 47 -40 88 -68 113 -79 8 -4 27 -20 42 -36 15 -15 31 -28 37 -28 5 0 11 -5 13 -12 6 -17 -3 -58 -12 -58 -5 0 -30 -23 -57 -52 -26 -28 -63 -67 -81 -85 -17 -19 -32 -37 -32 -40 0 -4 -7 -15 -17 -25 -27 -30 -92 -24 -131 12 -18 17 -36 30 -38 30 -3 0 -32 20 -64 45 -32 25 -62 45 -66 45 -4 0 -22 15 -40 33 -17 17 -47 43 -65 57 -18 14 -40 33 -48 42 -9 10 -19 18 -24 18 -22 0 -387 370 -401 407 -3 7 -10 13 -16 13 -5 0 -10 4 -10 10 0 5 -20 31 -45 57 -24 26 -45 55 -45 63 -1 8 -14 26 -30 40 -17 13 -30 31 -30 40 0 8 -14 28 -30 44 -17 16 -30 35 -30 43 0 7 -5 13 -10 13 -6 0 -13 8 -17 18 -3 9 -19 33 -35 53 -15 20 -28 44 -28 53 0 9 -7 19 -15 22 -8 4 -15 15 -15 25 0 10 -5 19 -10 19 -6 0 -15 10 -21 23 -15 33 -35 67 -48 80 -6 6 -11 21 -11 33 0 12 -7 24 -15 28 -8 3 -15 15 -15 26 0 11 -14 39 -30 62 -16 22 -30 51 -30 63 0 13 -7 28 -15 35 -8 7 -15 21 -15 32 0 10 -7 21 -15 24 -8 4 -15 16 -15 28 -1 11 -7 32 -15 46 -8 14 -14 35 -15 46 0 12 -7 24 -15 28 -8 3 -15 17 -15 31 0 14 -7 28 -15 31 -10 4 -15 20 -15 44 0 21 -7 43 -15 50 -8 7 -15 24 -15 39 0 14 -7 35 -15 45 -8 11 -15 32 -15 47 0 15 -7 40 -15 55 -8 16 -15 41 -15 55 0 15 -7 40 -15 55 -8 16 -15 40 -15 54 -1 14 -7 36 -15 50 -8 14 -14 50 -15 81 0 31 -7 73 -15 92 -8 20 -15 58 -15 84 0 27 -6 57 -14 68 -9 13 -15 67 -19 160 -3 77 -11 195 -18 261 -11 104 -10 149 4 315 10 107 17 231 17 275 0 61 4 85 15 94 10 9 15 32 15 74 1 34 7 72 15 86 8 14 14 50 15 80 0 49 8 87 42 185 5 17 14 52 19 79 4 27 13 54 19 60 5 5 10 27 10 48 0 25 5 41 15 44 8 4 15 18 15 34 0 15 7 33 15 40 8 7 15 29 15 50 0 24 5 40 15 44 9 3 15 18 15 35 0 16 5 31 11 33 12 4 38 67 46 113 3 17 12 34 19 38 8 4 14 16 14 26 0 10 7 24 15 31 8 7 15 23 15 35 0 12 7 28 15 35 8 7 15 18 15 25 0 7 7 18 15 25 8 7 15 20 15 30 0 10 7 23 15 30 8 7 15 21 15 32 0 10 7 21 15 24 8 4 15 15 15 25 0 11 7 22 15 25 8 4 15 14 15 23 0 9 14 31 30 49 17 18 30 42 30 53 0 11 7 22 15 25 8 4 15 14 15 23 0 9 14 29 30 45 17 16 30 37 30 46 0 9 14 29 30 45 16 16 30 33 30 38 0 9 47 72 80 108 50 54 69 77 86 104 10 17 51 63 91 103 40 40 73 78 73 83 0 5 4 9 8 9 5 0 58 48 118 108 111 108 196 184 215 191 6 2 32 23 57 47 26 24 52 44 58 44 6 0 24 13 40 30 16 16 35 30 42 30 8 0 26 12 41 26 28 26 64 49 94 60 9 3 17 10 17 15 0 5 10 14 23 19 12 6 29 14 37 19 8 5 22 12 30 15 24 9 54 30 63 44 4 6 15 12 24 12 8 0 35 14 60 30 24 17 50 30 57 30 8 0 19 7 26 15 7 8 25 15 40 15 15 0 33 7 40 15 7 8 18 15 25 15 7 0 18 7 25 15 7 8 29 15 50 15 24 0 40 5 44 15 3 8 16 15 30 15 13 0 26 7 30 15 3 8 16 15 29 15 13 0 32 7 43 15 10 8 32 15 47 15 15 0 30 7 33 15 4 9 19 15 39 15 18 0 38 7 45 15 7 8 29 15 50 15 21 0 43 7 50 15 7 8 27 15 46 15 18 0 39 7 48 15 8 8 32 15 53 15 21 1 49 7 63 15 14 8 50 15 80 15 30 0 66 7 80 15 14 8 50 14 80 15 30 0 71 5 90 12 84 29 1006 30 1062 2z m-412 -4060 c55 -4 103 -12 115 -20 11 -8 35 -14 55 -14 19 0 44 -7 54 -15 11 -8 33 -15 48 -15 16 0 31 -7 34 -15 4 -8 14 -15 24 -15 10 0 23 -7 30 -15 7 -8 21 -15 31 -15 9 0 24 -7 33 -15 8 -8 21 -15 30 -15 8 0 18 -5 21 -11 4 -5 17 -15 28 -20 42 -19 71 -38 98 -63 37 -35 76 -34 117 4 18 17 40 30 48 30 8 0 17 7 20 15 4 8 18 15 34 15 16 0 30 7 34 15 3 8 16 15 29 15 13 0 32 7 43 15 10 8 37 15 59 15 22 0 49 7 59 15 11 8 36 15 55 15 20 1 47 7 61 15 34 19 175 19 230 0 23 -8 58 -15 77 -15 21 0 36 -6 39 -15 4 -10 21 -15 54 -15 33 0 50 -5 54 -15 3 -8 17 -15 31 -15 14 0 28 -7 31 -15 4 -8 14 -15 24 -15 10 0 23 -7 30 -15 7 -8 18 -15 25 -15 7 0 27 -16 46 -35 19 -19 39 -35 44 -35 13 0 125 -112 125 -125 0 -6 14 -23 30 -39 17 -16 30 -37 30 -46 0 -10 7 -23 15 -30 8 -7 15 -23 15 -35 0 -13 7 -25 15 -29 8 -3 15 -16 15 -29 0 -14 7 -30 15 -37 9 -7 15 -30 15 -54 0 -22 7 -50 15 -60 21 -28 21 -319 0 -356 -8 -14 -14 -38 -15 -54 0 -36 -35 -76 -66 -76 -12 0 -24 -7 -28 -15 -3 -9 -18 -15 -36 -15 -18 0 -33 -6 -36 -15 -4 -9 -19 -15 -39 -15 -18 0 -38 -7 -45 -15 -7 -8 -20 -15 -30 -15 -10 0 -23 -7 -30 -15 -7 -8 -20 -15 -29 -15 -9 0 -25 -7 -35 -15 -11 -8 -26 -15 -34 -15 -8 0 -31 -13 -52 -30 -21 -16 -45 -30 -53 -30 -9 0 -29 -12 -44 -26 -15 -14 -44 -34 -63 -45 -19 -10 -48 -32 -64 -49 -16 -16 -34 -30 -41 -30 -6 0 -22 -13 -35 -30 -14 -16 -31 -29 -37 -30 -7 0 -13 -5 -13 -10 0 -6 -20 -30 -45 -53 -25 -24 -45 -48 -45 -53 0 -6 -13 -23 -30 -39 -16 -16 -30 -35 -30 -42 0 -8 -13 -27 -30 -43 -16 -16 -30 -33 -30 -38 0 -5 -7 -15 -15 -22 -8 -7 -15 -21 -15 -32 0 -11 -14 -38 -31 -59 -23 -29 -30 -47 -27 -68 3 -21 0 -28 -11 -27 -9 1 -17 -8 -19 -21 -2 -12 -10 -27 -18 -33 -8 -7 -14 -22 -14 -34 0 -12 -7 -31 -15 -42 -8 -10 -15 -31 -15 -45 0 -14 -7 -34 -15 -45 -8 -10 -15 -28 -15 -40 0 -11 -7 -29 -15 -40 -8 -10 -15 -37 -15 -60 0 -22 -5 -45 -11 -51 -6 -6 -13 -38 -16 -72 -3 -33 -12 -66 -19 -72 -9 -7 -14 -33 -14 -68 -1 -31 -7 -67 -15 -81 -9 -16 -14 -56 -15 -115 0 -50 -5 -106 -12 -125 -6 -19 -14 -91 -18 -160 -4 -69 -12 -150 -19 -182 -13 -64 -9 -981 6 -1238 7 -114 6 -151 -4 -172 l-14 -28 -837 0 c-639 0 -841 3 -850 12 -9 9 -12 154 -13 588 0 316 -5 616 -11 665 -5 50 -13 158 -16 240 -4 83 -13 163 -20 178 -6 16 -12 66 -12 113 0 53 -6 98 -15 121 -8 19 -15 61 -15 92 0 31 -5 62 -10 67 -6 6 -15 39 -21 75 -6 35 -14 68 -20 73 -5 6 -9 28 -9 50 0 23 -7 50 -15 60 -8 11 -15 36 -15 55 -1 20 -7 47 -15 61 -8 14 -14 35 -15 46 0 12 -7 27 -15 34 -8 7 -15 29 -15 50 0 24 -5 40 -15 44 -8 3 -15 14 -15 24 0 11 -7 25 -15 32 -8 7 -15 25 -15 40 0 15 -7 33 -15 40 -8 7 -15 21 -15 31 0 10 -4 21 -10 24 -5 3 -21 30 -35 58 -34 69 -47 90 -62 100 -7 4 -13 15 -13 23 0 16 -2 19 -50 74 -16 19 -30 38 -30 42 0 15 -59 70 -69 64 -7 -4 -9 -1 -5 8 4 9 -23 43 -75 95 -44 45 -82 81 -85 81 -3 0 -20 14 -38 30 -18 17 -38 30 -46 30 -7 0 -15 7 -18 15 -4 8 -12 15 -19 15 -7 0 -15 7 -19 15 -3 8 -12 15 -21 15 -16 0 -77 39 -83 53 -2 4 -12 7 -22 7 -9 0 -23 7 -30 15 -7 8 -20 15 -30 15 -10 0 -23 7 -30 15 -7 8 -25 15 -40 15 -16 0 -30 7 -34 15 -3 9 -18 15 -36 15 -17 0 -38 7 -46 15 -9 8 -26 15 -39 15 -13 0 -38 8 -57 17 -18 9 -39 19 -46 22 -33 15 -46 83 -49 265 -3 148 -1 182 12 202 8 13 15 32 15 42 0 10 7 27 15 38 8 10 15 28 15 40 0 11 7 29 15 40 8 10 15 27 15 37 0 9 5 17 10 17 6 0 14 10 19 23 9 22 85 123 112 149 54 50 139 118 149 118 6 0 13 7 16 15 4 8 16 15 29 15 12 0 28 7 35 15 7 8 20 15 30 15 10 0 23 7 30 15 7 9 29 15 55 15 26 0 48 6 55 15 7 8 27 15 44 15 18 0 41 7 52 15 27 20 218 21 267 0 20 -8 52 -15 70 -15 19 0 40 -7 47 -15 7 -8 27 -15 45 -15 19 0 46 -7 62 -15 15 -7 49 -24 75 -35 27 -12 50 -26 54 -31 3 -5 14 -9 24 -9 10 0 23 -6 27 -13 4 -8 15 -17 23 -21 31 -14 57 -32 74 -49 10 -9 21 -17 26 -17 5 0 37 21 72 48 75 56 95 69 126 82 12 5 22 14 22 20 0 5 8 10 19 10 10 0 24 7 31 15 7 8 20 15 30 15 10 0 23 7 30 15 7 8 20 15 30 15 10 0 20 7 24 15 3 9 18 15 39 15 19 0 40 7 47 15 7 8 27 15 44 15 18 0 41 7 52 15 11 9 44 15 84 16 36 0 76 5 90 9 14 5 43 7 65 4 22 -2 83 -7 135 -10z"/> <path d="M4375 7280 c-22 -5 -59 -9 -81 -9 -24 -1 -47 -7 -54 -16 -7 -8 -23 -15 -35 -15 -12 0 -28 -7 -35 -15 -7 -8 -21 -15 -31 -15 -10 0 -21 -5 -24 -11 -4 -5 -17 -14 -28 -20 -46 -19 -129 -79 -169 -121 -15 -15 -29 -28 -32 -28 -6 0 -76 -69 -76 -75 0 -2 -15 -20 -32 -39 -18 -19 -39 -41 -46 -50 -26 -32 -64 -19 -129 44 -35 33 -67 60 -72 60 -5 0 -11 7 -15 15 -3 8 -11 15 -18 15 -7 0 -26 14 -42 30 -16 17 -36 30 -45 30 -9 0 -26 11 -39 24 -27 29 -95 66 -121 66 -10 0 -21 7 -25 15 -3 8 -18 15 -34 15 -15 0 -37 7 -48 15 -28 21 -266 21 -288 0 -8 -8 -23 -15 -34 -15 -11 0 -25 -7 -32 -15 -7 -8 -24 -15 -37 -15 -20 0 -24 -4 -20 -19 3 -14 1 -18 -10 -14 -30 12 -143 -127 -143 -178 0 -19 -7 -37 -17 -44 -16 -12 -16 -15 7 -34 14 -11 35 -20 46 -21 12 0 27 -7 34 -15 7 -8 19 -15 27 -15 7 0 16 -7 19 -15 4 -8 18 -15 34 -15 15 0 33 -7 40 -15 7 -8 20 -15 30 -15 10 0 20 -7 24 -15 3 -8 15 -15 26 -15 11 0 23 -7 26 -15 4 -8 14 -15 23 -15 9 0 31 -13 49 -30 18 -16 39 -30 45 -30 7 0 34 -20 62 -45 27 -25 55 -45 60 -45 13 0 275 -265 275 -278 0 -6 20 -31 45 -58 25 -26 45 -53 45 -60 0 -7 13 -28 30 -46 17 -18 30 -41 30 -51 0 -9 7 -20 15 -23 8 -4 15 -14 15 -25 0 -10 6 -22 13 -26 13 -9 34 -39 43 -63 3 -8 10 -22 15 -30 5 -8 13 -25 18 -37 6 -11 15 -24 20 -28 6 -3 11 -19 11 -34 0 -16 7 -34 15 -41 8 -7 15 -20 15 -30 0 -10 7 -20 15 -24 9 -3 15 -18 15 -34 0 -16 7 -35 15 -42 8 -7 15 -25 15 -40 0 -16 7 -30 15 -34 9 -3 15 -18 15 -39 0 -19 7 -40 15 -47 8 -7 15 -29 15 -49 1 -20 7 -47 15 -61 8 -14 14 -37 15 -51 0 -15 7 -32 15 -39 8 -7 15 -29 15 -50 0 -21 7 -54 15 -73 8 -20 15 -56 15 -81 0 -30 5 -46 15 -50 11 -4 15 -20 15 -55 0 -27 5 -62 11 -78 6 -15 13 -71 16 -123 3 -52 12 -104 18 -115 7 -11 15 -67 17 -123 3 -57 10 -107 15 -110 7 -5 12 -109 15 -277 3 -180 8 -277 16 -292 8 -15 12 -103 12 -288 0 -240 2 -267 16 -261 9 3 183 6 388 6 l373 0 0 363 c0 440 15 873 31 904 7 12 12 59 12 105 1 53 6 92 15 108 9 16 14 56 15 113 0 65 4 92 15 103 9 9 15 34 15 58 0 27 6 48 15 56 10 8 15 31 15 69 1 31 7 67 15 81 8 14 14 37 15 52 0 14 6 39 14 55 22 45 38 95 43 135 3 21 11 42 19 49 8 6 14 22 14 34 0 12 7 28 15 35 8 7 15 25 15 40 0 16 7 30 15 34 8 3 15 16 15 29 0 14 7 30 15 37 8 7 15 21 15 31 0 9 6 24 13 31 8 7 17 25 20 39 4 15 18 37 32 50 13 13 25 31 25 40 0 9 7 22 15 29 8 7 15 17 15 22 0 6 14 27 30 48 17 21 30 42 30 47 0 5 14 22 30 38 17 16 30 34 30 40 0 6 13 22 30 35 16 14 29 29 30 34 0 4 24 34 54 66 102 111 308 277 383 309 11 6 24 15 28 20 3 6 14 11 25 11 10 0 20 7 24 15 3 8 12 15 21 15 8 0 15 4 15 10 0 5 12 13 27 16 15 4 34 13 41 21 7 7 24 13 36 13 13 0 29 7 36 15 7 8 21 15 32 15 10 0 21 7 24 15 4 9 19 15 35 15 23 0 32 6 40 27 7 18 6 30 -1 37 -5 5 -10 29 -10 52 0 24 -5 46 -11 49 -5 4 -15 17 -20 28 -42 93 -117 153 -272 221 -51 22 -234 23 -263 1 -10 -8 -32 -15 -47 -15 -15 0 -30 -7 -33 -15 -4 -8 -18 -15 -34 -15 -16 0 -30 -7 -34 -15 -3 -8 -15 -15 -27 -15 -12 0 -38 -13 -58 -28 -20 -16 -44 -32 -53 -35 -10 -4 -18 -11 -18 -17 0 -5 -6 -10 -14 -10 -8 0 -48 -34 -90 -75 -42 -41 -82 -75 -90 -75 -13 0 -40 24 -168 145 -20 19 -41 35 -47 35 -6 0 -11 4 -11 8 0 12 -98 82 -115 82 -8 0 -15 5 -15 10 0 6 -11 15 -25 20 -14 5 -25 14 -25 20 0 5 -13 10 -29 10 -16 0 -34 7 -41 15 -7 8 -20 15 -30 15 -10 0 -23 6 -29 14 -19 22 -266 41 -336 26z"/> <path d="M3095 1420 c-16 -16 -35 -30 -42 -30 -7 0 -18 -11 -23 -24 -5 -13 -14 -27 -19 -31 -6 -3 -11 -14 -11 -25 0 -10 -7 -20 -15 -24 -21 -8 -22 -178 -1 -196 8 -6 16 -21 18 -33 2 -14 10 -21 21 -21 13 2 16 -3 11 -18 -7 -23 21 -58 46 -58 10 0 20 -6 23 -14 3 -8 25 -17 49 -21 66 -12 2067 -17 2388 -6 209 7 292 13 312 23 40 21 98 84 98 106 0 11 7 25 15 32 11 9 15 35 15 104 0 111 -15 146 -91 217 l-53 49 -1356 0 -1356 0 -29 -30z"/> <path d="M3205 651 c-11 -5 -39 -10 -61 -10 -28 -1 -44 -6 -48 -16 -3 -8 -10 -15 -16 -15 -19 0 -80 -74 -80 -96 0 -12 -7 -24 -15 -28 -12 -4 -15 -25 -15 -100 0 -74 3 -95 15 -100 8 -3 15 -13 15 -23 0 -10 20 -38 44 -63 83 -87 -26 -81 1451 -78 1126 3 1305 5 1336 18 50 21 119 83 119 107 0 11 7 26 15 33 11 9 15 34 15 100 0 108 -20 158 -86 220 l-48 44 -920 2 c-507 1 -1096 5 -1311 8 -235 4 -398 2 -410 -3z"/> </g> </svg> 